# xmcd
# 
# Track frame offsets:
#     150
#     10598
#     23063
#     37329
#     50017
#     63088
#     74125
#     87718
#     101848
#     111419
#     126789
#     139937
#     152736
#     167263
#     180846
#     193304
#     204804
#     217680
#     227365
#     240307
#     255248
#     267744
#     280700
#     294164
#     305490
#     318272
#     329539
# 
# Disc length: 4568
# 
# Revision: 0
# Processed by: cddbd v1.5.2PL0 Copyright (c) Steve Scherf et al.
# Submitted via: BonkEnc v1.0.8
# 
DISCID=7d11d61b
DTITLE=Various Artist - Wagon Wheels
DYEAR=1974
DGENRE=country
TTITLE0=Sons of the Pioneers - Wagon Wheels
TTITLE1=Eddy Arnold - Cattle Call
TTITLE2=Bing Crosby - Along The Santa Fe Trail
TTITLE3=Jimmy Wakely - Take Me Back To My Boots And Saddle
TTITLE4=Sons of the Pioneers - Cool Water
TTITLE5=Patsy Cline - South Of The Border
TTITLE6=Rex Allen - The Last Round Up
TTITLE7=Bing Crosby and The Andrew Sisters - Don't Fence Me In
TTITLE8=Sons of the Pioneers - Whoopie-Ti-Yi-Yo
TTITLE9=Jimmie Rodgers - Blue Yodel No. 1 (T for Texas)
TTITLE10=Sons of the Pioneers - Empty Saddles
TTITLE11=Jimmie Davis - Nobody's Darling But Mine
TTITLE12=Jim Reeves - The Shifting Whispering Sands
TTITLE13=Vaugn Monroe and Sons of the Pioneers - Riders In The Sky
TTITLE14=Sons of the Pioneers - Tumbling Tumbleweeds
TTITLE15=Kitty Wells - It Wasn't God Who Made Honky Tonk Angels
TTITLE16=Bing Crosby and The Jesters - Sioux City Sue
TTITLE17=Sons of the Pioneers - Along The Navajo Trail
TTITLE18=Elton Britt and The Skytoppers - Someday (You'll Want Me To Want You)
TTITLE19=Vernon Dalhart - The Prisoner's Song
TTITLE20=Montana Slim - When It's Springtime In The Rockies
TTITLE21=Jimmie Davis - You Are My Sunshine
TTITLE22=Sons of the Pioneers - Teardrops In My Heart
TTITLE23=Jim Reeves - Mexicali Rose
TTITLE24=Jimmy Wakely - Beautiful Brown Eyes
TTITLE25=Sons of the Pioneers - Twilight On The Trail
TTITLE26=Roy Rogers and Dale Evans - Happy Trails
EXTD=
EXTT0=
EXTT1=
EXTT2=
EXTT3=
EXTT4=
EXTT5=
EXTT6=
EXTT7=
EXTT8=
EXTT9=
EXTT10=
EXTT11=
EXTT12=
EXTT13=
EXTT14=
EXTT15=
EXTT16=
EXTT17=
EXTT18=
EXTT19=
EXTT20=
EXTT21=
EXTT22=
EXTT23=
EXTT24=
EXTT25=
EXTT26=
PLAYORDER=
